<?xml version="1.0"?>
<svg width="200" height="200" xmlns="http://www.w3.org/2000/svg" xmlns:svg="http://www.w3.org/2000/svg" preserveAspectRatio="xMidYMid meet" version="1.0">
 <g class="layer">
  <title>Layer 1</title>
  <g id="svg_43">
   <path d="m78.18,26.37c-35.11,12.18 -51.43,36.49 -48.62,72.23c1.23,18.04 3.44,24.16 12.5,34.65c16.69,18.95 34.72,27.33 67.44,29.81l27.68,2.18l-0.12,-14.3l-0.12,-13.96l-19.76,0.15c-38.08,0.29 -59.42,-16.24 -59.67,-46.56c-0.1,-11.58 2.02,-16.71 11.99,-27.34l12.11,-12.69l48.85,-1.39l48.85,-1.73l-0.11,-13.28l-0.11,-13.28l-43.83,0.33c-26.58,0.54 -49.2,2.41 -57.08,5.2z" fill="#000000" id="svg_3"/>
   <path d="m100.65,92.96l0.11,13.62l25.15,-0.19l25.15,-0.19l0.24,28.95l0.24,28.95l14.37,-0.11l14.37,-0.11l-0.35,-42.57l-0.35,-42.57l-39.52,0.3l-39.52,0.3l0.11,13.62z" fill="#000000" id="svg_19"/>
  </g>
  <path d="m80.31,51.5c-1,0 -1.8,0 -2.76,0c-0.9,0 -1.7,0 -2.66,0c-0.79,0 -1.57,0 -2.61,0c-0.97,0 -1.77,-0.03 -2.67,0c-0.94,0.03 -1.3,0.76 -1.3,1.66c0,0.75 0,1.74 0,2.69c0,0.9 0,1.76 0,2.54l0,0.94l0,1.01l0,0.86" fill="none" id="svg_44" stroke="#000000"/>
 </g>
</svg>